<svg fill="#C8102E" data-icon="true" xml:space="preserve" viewBox="-20 -20 140 140" y="0px" x="0px" version="1.1" xmlns:xlink="http://www.w3.org/1999/xlink" xmlns="http://www.w3.org/2000/svg"><path d="M56.952,16.63c0-3.818-3-6.935-6.772-7.122V9.5c-0.06,0-0.119,0.001-0.179,0.002  C49.941,9.501,49.881,9.5,49.822,9.5v0.009c-3.772,0.187-6.773,3.304-6.773,7.122s3,6.935,6.773,7.122v0.009  c0.06,0,0.119,0,0.179-0.002c0.06,0.001,0.12,0.002,0.179,0.002v-0.009C53.951,23.565,56.952,20.448,56.952,16.63z" clip-rule="evenodd" fill-rule="evenodd"></path><path d="M69.085,54.903c-0.027-0.097-6.835-22.792-6.835-22.792  c-1.108-3.503-3.439-6.411-7.081-6.562v-0.007h-5.122h-0.093h-5.122v0.007c-3.641,0.15-5.972,3.059-7.081,6.562  c0,0-6.807,22.695-6.835,22.792c-0.416,1.417,0.397,2.902,1.815,3.317c1.417,0.415,2.902-0.398,3.317-1.815  c0.028-0.096,6.425-21.949,6.425-21.949h1.418L34.73,65.355h8.319v23.174c0,1.641,1.331,2.971,2.972,2.971  c1.641,0,2.971-1.33,2.971-2.971V65.355h0.962h0.093h0.962v23.174c0,1.641,1.331,2.971,2.972,2.971c1.641,0,2.971-1.33,2.971-2.971  V65.355h8.319l-9.16-30.898h1.417c0,0,6.397,21.853,6.425,21.949c0.415,1.417,1.9,2.23,3.318,1.815  C68.688,57.806,69.5,56.321,69.085,54.903z" clip-rule="evenodd" fill-rule="evenodd"></path></svg>