<svg fill="#C8102E" data-icon="true" xml:space="preserve" viewBox="-20 -20 140 140" y="0px" x="0px" version="1.1" xmlns:xlink="http://www.w3.org/1999/xlink" xmlns="http://www.w3.org/2000/svg"><path d="M57.726,25.246h-7.725h-7.725c-4.595,0-8.319,3.725-8.319,8.319v21.391  c0,1.641,1.33,2.971,2.972,2.971c1.641,0,2.971-1.33,2.971-2.971V35.348h1.188v51.695h0.013c-0.008,0.099-0.013,0.197-0.013,0.297  c0,2.133,1.729,3.862,3.861,3.862c2.134,0,3.863-1.729,3.863-3.862c0-0.1-0.005-0.199-0.013-0.297h0.013v-29.71h1.188h1.188v29.71  h0.013c-0.008,0.099-0.013,0.197-0.013,0.297c0,2.133,1.729,3.862,3.861,3.862c2.134,0,3.863-1.729,3.863-3.862  c0-0.1-0.006-0.199-0.013-0.297h0.013V35.348h1.188v19.608c0,1.641,1.33,2.971,2.971,2.971s2.971-1.33,2.971-2.971V33.565  C66.044,28.971,62.319,25.246,57.726,25.246z" clip-rule="evenodd" fill-rule="evenodd"></path><circle r="7.13" cy="16.927" cx="50.001" clip-rule="evenodd" fill-rule="evenodd"></circle></svg>